:FULLY-SPECIFIED
:FORCE-ALL-JOINTS-BE-3DOF
:DEGREES
2344
root -0.892068 14.1144 -19.3656 980.337 3.06716 106.208
lfemur -9.47883 7.97538 -9.6788
ltibia 52.0662 0 0
lfoot -14.6159 30.9434 0
ltoes -24.5891 0 0
rfemur -57.6765 -11.6117 17.6323
rtibia 78.4453 0 0
rfoot -16.295 -4.55093 0
rtoes -7.87228 0 0
lowerback 13.4362 3.52603 -6.3851
upperback -2.00934 3.82237 -0.39707
thorax -9.97273 2.08798 2.23631
lowerneck -3.62826 -4.66489 -5.7646
upperneck 5.9554 -6.32353 2.82721
head 3.41389 -3.25487 1.47435
lclavicle -2.70585e-14 -1.45279e-14 0
lhumerus -39.0408 -10.7562 92.1942
lradius 106.009 0 0
lwrist 52.4585 0 0
lhand -34.5462 420.506 0
lfingers 7.12502 0 0
lthumb -7.6955 -655.153 0
rclavicle -2.70585e-14 -1.45279e-14 0
rhumerus 13.4088 20.6526 -74.0541
rradius 60.5004 0 0
rwrist -2.47125 0 0
rhand -8.63725 -390.935 0
rfingers 7.12502 0 0
rthumb 17.2758 300.041 0
2345
root -0.893811 14.1353 -19.4583 983.058 4.08836 103.748
lfemur -10.4924 8.18294 -9.5784
ltibia 52.9102 0 0
lfoot -14.3351 30.7387 0
ltoes -23.7181 0 0
rfemur -57.0847 -11.1998 17.832
rtibia 78.4229 0 0
rfoot -16.5723 -5.2227 0
rtoes -8.38841 0 0
lowerback 13.5395 3.54992 -6.14318
upperback -2.00348 3.89645 -0.363245
thorax -10.0162 2.11141 2.11456
lowerneck -3.77853 -4.41304 -5.54321
upperneck 6.00606 -5.97262 2.57935
head 3.43144 -3.0821 1.37683
lclavicle -2.58703e-14 -1.46318e-14 0
lhumerus -37.892 -10.413 91.6717
lradius 106.167 0 0
lwrist 51.829 0 0
lhand -34.8888 420.533 0
lfingers 7.12502 0 0
lthumb -8.02593 -654.796 0
rclavicle -2.58703e-14 -1.46318e-14 0
rhumerus 12.0524 21.721 -74.7869
rradius 62.0775 0 0
rwrist -3.71238 0 0
rhand -8.24723 -390.522 0
rfingers 7.12502 0 0
rthumb 17.6511 300.486 0
2346
root -0.89533 14.1563 -19.5513 985.787 5.11573 101.274
lfemur -11.5101 8.3905 -9.47826
ltibia 53.7581 0 0
lfoot -14.0543 30.5334 0
ltoes -22.8454 0 0
rfemur -56.4912 -10.7872 18.0315
rtibia 78.3992 0 0
rfoot -16.8493 -5.89557 0
rtoes -8.90528 0 0
lowerback 13.6432 3.5736 -5.90063
upperback -1.99762 3.97038 -0.329263
thorax -10.0598 2.13475 1.99265
lowerneck -3.92875 -4.16106 -5.32174
upperneck 6.05658 -5.62155 2.3315
head 3.449 -2.90925 1.2793
lclavicle -2.4671e-14 -1.47321e-14 0
lhumerus -36.7407 -10.0705 91.1485
lradius 106.324 0 0
lwrist 51.1984 0 0
lhand -35.2292 420.56 0
lfingers 7.12502 0 0
lthumb -8.35422 -654.401 0
rclavicle -2.4671e-14 -1.47321e-14 0
rhumerus 10.6924 22.7904 -75.5213
rradius 63.659 0 0
rwrist -4.95544 0 0
rhand -7.85754 -390.109 0
rfingers 7.12502 0 0
rthumb 18.026 300.931 0
2347
root -0.896608 14.1774 -19.6448 988.523 6.1487 98.7878
lfemur -12.5314 8.59789 -9.37845
ltibia 54.6093 0 0
lfoot -13.7735 30.3277 0
ltoes -21.9718 0 0
rfemur -55.8966 -10.3744 18.2305
rtibia 78.3742 0 0
rfoot -17.1256 -6.56895 0
rtoes -9.4224 0 0
lowerback 13.747 3.59704 -5.65765
upperback -1.99176 4.04407 -0.295136
thorax -10.1034 2.15795 1.8707
lowerneck -4.07874 -3.9092 -5.10041
upperneck 6.10688 -5.27067 2.08391
head 3.46655 -2.73651 1.18187
lclavicle -2.34619e-14 -1.48288e-14 0
lhumerus -35.588 -9.72891 90.6254
lradius 106.482 0 0
lwrist 50.5675 0 0
lhand -35.567 420.586 0
lfingers 7.12502 0 0
lthumb -8.67999 -653.971 0
rclavicle -2.34619e-14 -1.48288e-14 0
rhumerus 9.32997 23.8598 -76.2566
rradius 65.2437 0 0
rwrist -6.1993 0 0
rhand -7.46859 -389.695 0
rfingers 7.12502 0 0
rthumb 18.4002 301.376 0
2348
root -0.897624 14.1984 -19.7385 991.264 7.18668 96.2905
lfemur -13.5552 8.80493 -9.27908
ltibia 55.4632 0 0
lfoot -13.4932 30.1217 0
ltoes -21.0981 0 0
rfemur -55.3015 -9.96176 18.4288
rtibia 78.3477 0 0
rfoot -17.4008 -7.24219 0
rtoes -9.93925 0 0
lowerback 13.851 3.62021 -5.41443
upperback -1.9859 4.11747 -0.260876
thorax -10.147 2.18101 1.74882
lowerneck -4.22835 -3.65771 -4.87945
upperneck 6.1569 -4.92032 1.83682
head 3.48406 -2.56405 1.08463
lclavicle -2.22442e-14 -1.49222e-14 0
lhumerus -34.435 -9.38879 90.1027
lradius 106.64 0 0
lwrist 49.9368 0 0
lhand -35.9017 420.611 0
lfingers 7.12502 0 0
lthumb -9.00288 -653.507 0
rclavicle -2.22442e-14 -1.49222e-14 0
rhumerus 7.96622 24.9282 -76.9921
rradius 66.8301 0 0
rwrist -7.44281 0 0
rhand -7.08083 -389.283 0
rfingers 7.12502 0 0
rthumb 18.7733 301.82 0
2349
root -0.89836 14.2194 -19.8324 994.007 8.22911 93.7838
lfemur -14.5809 9.01144 -9.18023
ltibia 56.3192 0 0
lfoot -13.2136 29.9155 0
ltoes -20.2251 0 0
rfemur -54.7062 -9.54967 18.6262
rtibia 78.3198 0 0
rfoot -17.6748 -7.91471 0
rtoes -10.4553 0 0
lowerback 13.955 3.64309 -5.17117
upperback -1.98004 4.19048 -0.226497
thorax -10.1907 2.20389 1.62714
lowerneck -4.37742 -3.40683 -4.65908
upperneck 6.20658 -4.57086 1.5905
head 3.50152 -2.39203 0.98768
lclavicle -2.10191e-14 -1.50121e-14 0
lhumerus -33.2826 -9.05056 89.5812
lradius 106.798 0 0
lwrist 49.307 0 0
lhand -36.2331 420.635 0
lfingers 7.12502 0 0
lthumb -9.3225 -653.013 0
rclavicle -2.10191e-14 -1.50121e-14 0
rhumerus 6.60236 25.9944 -77.7271
rradius 68.4171 0 0
rwrist -8.68484 0 0
rhand -6.6947 -388.871 0
rfingers 7.12502 0 0
rthumb 19.1448 302.263 0
2350
root -0.898798 14.2404 -19.9264 996.75 9.27543 91.2692
lfemur -15.6076 9.21723 -9.08198
ltibia 57.1766 0 0
lfoot -12.935 29.7094 0
ltoes -19.3536 0 0
rfemur -54.1114 -9.1385 18.8224
rtibia 78.2903 0 0
rfoot -17.9471 -8.58586 0
rtoes -10.9701 0 0
lowerback 14.0591 3.66564 -4.92806
upperback -1.97416 4.26305 -0.19201
thorax -10.2343 2.22657 1.50578
lowerneck -4.52578 -3.15683 -4.43952
upperneck 6.25584 -4.22264 1.34519
head 3.5189 -2.22063 0.891131
lclavicle -1.97879e-14 -1.50988e-14 0
lhumerus -32.1319 -8.71463 89.0612
lradius 106.956 0 0
lwrist 48.6789 0 0
lhand -36.5607 420.657 0
lfingers 7.12502 0 0
lthumb -9.6385 -652.488 0
rclavicle -1.97879e-14 -1.50988e-14 0
rhumerus 5.23954 27.0575 -78.4609
rradius 70.0031 0 0
rwrist -9.92427 0 0
rhand -6.31062 -388.46 0
rfingers 7.12502 0 0
rthumb 19.5143 302.705 0
2351
root -0.898917 14.2614 -20.0205 999.49 10.325 88.7482
lfemur -16.6345 9.42214 -8.98443
ltibia 58.035 0 0
lfoot -12.6576 29.5035 0
ltoes -18.4845 0 0
rfemur -53.5175 -8.72862 19.0174
rtibia 78.2593 0 0
rfoot -18.2175 -9.25505 0
rtoes -11.4831 0 0
lowerback 14.163 3.68783 -4.68529
upperback -1.96827 4.33508 -0.157427
thorax -10.2778 2.24903 1.38484
lowerneck -4.67327 -2.90795 -4.221
upperneck 6.30463 -3.87601 1.10116
head 3.53618 -2.05002 0.795079
lclavicle -1.85516e-14 -1.51822e-14 0
lhumerus -30.984 -8.38146 88.5433
lradius 107.114 0 0
lwrist 48.0531 0 0
lhand -36.8841 420.679 0
lfingers 7.12502 0 0
lthumb -9.95049 -651.937 0
rclavicle -1.85516e-14 -1.51822e-14 0
rhumerus 3.87895 28.1164 -79.1927
rradius 71.587 0 0
rwrist -11.1599 0 0
rhand -5.92903 -388.051 0
rfingers 7.12502 0 0
rthumb 19.8814 303.145 0
2352
root -0.898699 14.2823 -20.1147 1002.23 11.3774 86.2225
lfemur -17.6608 9.62598 -8.88765
ltibia 58.8936 0 0
lfoot -12.3817 29.2979 0
ltoes -17.6185 0 0
rfemur -52.925 -8.32042 19.2109
rtibia 78.2268 0 0
rfoot -18.4857 -9.92165 0
rtoes -11.9938 0 0
lowerback 14.2668 3.70963 -4.44306
upperback -1.96236 4.4065 -0.122761
thorax -10.3212 2.27123 1.26446
lowerneck -4.81975 -2.66044 -4.00374
upperneck 6.35287 -3.53131 0.858643
head 3.55335 -1.88038 0.699623
lclavicle -1.73116e-14 -1.52624e-14 0
lhumerus -29.8398 -8.05147 88.0281
lradius 107.271 0 0
lwrist 47.4303 0 0
lhand -37.203 420.699 0
lfingers 7.12502 0 0
lthumb -10.2581 -651.36 0
rclavicle -1.73116e-14 -1.52624e-14 0
rhumerus 2.52173 29.17 -79.9219
rradius 73.1675 0 0
rwrist -12.3908 0 0
rhand -5.55037 -387.645 0
rfingers 7.12502 0 0
rthumb 20.2457 303.583 0
2353
root -0.898125 14.3031 -20.2088 1004.96 12.4319 83.6935
lfemur -18.6857 9.82857 -8.79174
ltibia 59.7519 0 0
lfoot -12.1077 29.0929 0
ltoes -16.7566 0 0
rfemur -52.3345 -7.91427 19.4026
rtibia 78.1926 0 0
rfoot -18.7513 -10.5851 0
rtoes -12.5017 0 0
lowerback 14.3704 3.731 -4.20156
upperback -1.95643 4.47724 -0.0880254
thorax -10.3645 2.29315 1.14475
lowerneck -4.96503 -2.41455 -3.78797
upperneck 6.40051 -3.1889 0.61791
head 3.57038 -1.71188 0.604864
lclavicle -1.6069e-14 -1.53396e-14 0
lhumerus -28.7004 -7.7251 87.5162
lradius 107.427 0 0
lwrist 46.8112 0 0
lhand -37.517 420.717 0
lfingers 7.12502 0 0
lthumb -10.561 -650.76 0
rclavicle -1.6069e-14 -1.53396e-14 0
rhumerus 1.16906 30.2174 -80.6477
rradius 74.7431 0 0
rwrist -13.6155 0 0
rhand -5.17507 -387.241 0
rfingers 7.12502 0 0
rthumb 20.6067 304.018 0
2354
root -0.897177 14.3238 -20.3028 1007.68 13.488 81.1629
lfemur -19.7085 10.0297 -8.69679
ltibia 60.6093 0 0
lfoot -11.8358 28.8885 0
ltoes -15.8995 0 0
rfemur -51.7464 -7.51055 19.5924
rtibia 78.1567 0 0
rfoot -19.014 -11.2446 0
rtoes -13.0063 0 0
lowerback 14.4738 3.75192 -3.96099
upperback -1.95047 4.54723 -0.0532313
thorax -10.4076 2.31477 1.02582
lowerneck -5.10897 -2.17053 -3.57392
upperneck 6.44747 -2.84912 0.37921
head 3.58725 -1.54469 0.510904
lclavicle -1.4825e-14 -1.54137e-14 0
lhumerus -27.5668 -7.40278 87.008
lradius 107.583 0 0
lwrist 46.1965 0 0
lhand -37.8257 420.734 0
lfingers 7.12502 0 0
lthumb -10.8587 -650.14 0
rclavicle -1.4825e-14 -1.54137e-14 0
rhumerus -0.177895 31.2574 -81.3695
rradius 76.3127 0 0
rwrist -14.8332 0 0
rhand -4.80357 -386.84 0
rfingers 7.12502 0 0
rthumb 20.9641 304.45 0
2355
root -0.895834 14.3443 -20.3966 1010.38 14.5451 78.632
lfemur -20.7282 10.2293 -8.60288
ltibia 61.4652 0 0
lfoot -11.5663 28.685 0
ltoes -15.048 0 0
rfemur -51.1613 -7.10963 19.7802
rtibia 78.1192 0 0
rfoot -19.2735 -11.8998 0
rtoes -13.5071 0 0
lowerback 14.5767 3.77236 -3.72154
upperback -1.94447 4.61638 -0.0183916
thorax -10.4504 2.33605 0.907804
lowerneck -5.2514 -1.92863 -3.36179
upperneck 6.49369 -2.51233 0.142796
head 3.60394 -1.37898 0.417841
lclavicle -1.35809e-14 -1.54849e-14 0
lhumerus -26.4402 -7.08494 86.5041
lradius 107.738 0 0
lwrist 45.5867 0 0
lhand -38.1286 420.75 0
lfingers 7.12502 0 0
lthumb -11.151 -649.5 0
rclavicle -1.35809e-14 -1.54849e-14 0
rhumerus -1.51797 32.2891 -82.0865
rradius 77.8748 0 0
rwrist -16.0425 0 0
rhand -4.4363 -386.442 0
rfingers 7.12502 0 0
rthumb 21.3175 304.878 0
2356
root -0.894078 14.3647 -20.4902 1013.08 15.6027 76.1025
lfemur -21.7441 10.4271 -8.51011
ltibia 62.3189 0 0
lfoot -11.2994 28.4826 0
ltoes -14.2029 0 0
rfemur -50.5796 -6.71191 19.9656
rtibia 78.0799 0 0
rfoot -19.5295 -12.5499 0
rtoes -14.0036 0 0
lowerback 14.6793 3.79228 -3.4834
upperback -1.93844 4.68462 0.0164814
thorax -10.493 2.35698 0.790809
lowerneck -5.39216 -1.68911 -3.15183
upperneck 6.53911 -2.17887 -0.0910773
head 3.62044 -1.21493 0.325778
lclavicle -1.23378e-14 -1.55532e-14 0
lhumerus -25.3214 -6.77203 86.005
lradius 107.892 0 0
lwrist 44.9827 0 0
lhand -38.4255 420.763 0
lfingers 7.12502 0 0
lthumb -11.4374 -648.843 0
rclavicle -1.23378e-14 -1.55532e-14 0
rhumerus -2.85 33.3114 -82.7981
rradius 79.4281 0 0
rwrist -17.2425 0 0
rhand -4.07369 -386.048 0
rfingers 7.12502 0 0
rthumb 21.6663 305.302 0
